<svg width="138" height="137" viewBox="0 0 138 137" fill="none" xmlns="http://www.w3.org/2000/svg">
<g clip-path="url(#clip0_3_17)">
<path d="M29.64 108.94L6.36 85.66C3.6 82.82 1.88 78.82 1.88 74.91C1.88 73.1 2.9 70.27 3.67 68.64L25.16 23.87L29.64 108.94Z" fill="#01579B"/>
<path d="M109.34 28.35L86.06 5.06997C84.03 3.02997 79.79 0.589966 76.21 0.589966C73.13 0.589966 70.11 1.20997 68.15 2.37997L25.17 23.87L109.34 28.35Z" fill="#40C4FF"/>
<path d="M57.4 136.7H113.82V112.52L71.73 99.09L33.23 112.52L57.4 136.7Z" fill="#40C4FF"/>
<path d="M25.17 96.41C25.17 103.59 26.07 105.36 29.65 108.95L33.23 112.53H113.82L74.42 67.76L25.17 23.88V96.41Z" fill="#29B6F6"/>
<path d="M96.8 23.87H25.16L113.81 112.52H137.99V57L109.34 28.35C105.32 24.31 101.74 23.87 96.8 23.87Z" fill="#01579B"/>
<path opacity="0.2" d="M30.54 109.84C26.96 106.24 26.06 102.7 26.06 96.41V24.77L25.16 23.87V96.4C25.17 102.7 25.17 104.44 30.54 109.84Z" fill="white"/>
<path opacity="0.2" d="M137.1 56.11V111.63H112.92L113.82 112.52H138V57.01L137.1 56.11Z" fill="#263238"/>
<path opacity="0.2" d="M109.34 28.35C104.9 23.91 101.26 23.87 95.91 23.87H25.17L26.07 24.77H95.92C98.58 24.77 105.33 24.32 109.34 28.35Z" fill="white"/>
<path opacity="0.2" d="M137.1 56.11L109.34 28.35L86.06 5.06997C84.03 3.02997 79.79 0.589966 76.21 0.589966C73.13 0.589966 70.11 1.20997 68.15 2.37997L25.17 23.87L3.68001 68.64C2.91001 70.27 1.89001 73.1 1.89001 74.91C1.89001 78.82 3.61001 82.82 6.37001 85.66L27.83 106.96C28.34 107.59 28.94 108.23 29.66 108.94L30.56 109.84L33.25 112.53L56.53 135.81L57.43 136.71H112.95H113.85V112.53H138.03V112.47V57.01L137.1 56.11Z" fill="url(#paint0_radial_3_17)"/>
</g>
<defs>
<radialGradient id="paint0_radial_3_17" cx="0" cy="0" r="1" gradientUnits="userSpaceOnUse" gradientTransform="translate(69.955 68.6464) scale(68.065 68.065)">
<stop stop-color="white" stop-opacity="0.1"/>
<stop offset="1" stop-color="white" stop-opacity="0"/>
</radialGradient>
<clipPath id="clip0_3_17">
<rect width="138" height="137" fill="white"/>
</clipPath>
</defs>
</svg>
