<svg width="207" height="110" viewBox="0 0 207 110" fill="none" xmlns="http://www.w3.org/2000/svg">
<path d="M16.5 40.2343C16.1 40.2343 16 40.0343 16.2 39.7343L18.3 37.0343C18.5 36.7343 19 36.5343 19.4 36.5343H55.1C55.5 36.5343 55.6 36.8343 55.4 37.1343L53.7 39.7343C53.5 40.0343 53 40.3343 52.7 40.3343L16.5 40.2343Z" fill="#2DBCAF"/>
<path d="M1.4 49.4343C1 49.4343 0.9 49.2343 1.1 48.9343L3.2 46.2343C3.4 45.9343 3.9 45.7343 4.3 45.7343H49.9C50.3 45.7343 50.5 46.0343 50.4 46.3343L49.6 48.7343C49.5 49.1343 49.1 49.3343 48.7 49.3343L1.4 49.4343Z" fill="#2DBCAF"/>
<path d="M25.6 58.6343C25.2 58.6343 25.1 58.3343 25.3 58.0343L26.7 55.5343C26.9 55.2343 27.3 54.9343 27.7 54.9343H47.7C48.1 54.9343 48.3 55.2343 48.3 55.6343L48.1 58.0343C48.1 58.4343 47.7 58.7343 47.4 58.7343L25.6 58.6343Z" fill="#2DBCAF"/>
<path d="M129.4 38.4343C123.1 40.0343 118.8 41.2343 112.6 42.8343C111.1 43.2343 111 43.3343 109.7 41.8343C108.2 40.1343 107.1 39.0343 105 38.0343C98.7 34.9343 92.6 35.8343 86.9 39.5343C80.1 43.9343 76.6 50.4343 76.7 58.5343C76.8 66.5343 82.3 73.1343 90.2 74.2343C97 75.1343 102.7 72.7343 107.2 67.6343C108.1 66.5343 108.9 65.3343 109.9 63.9343C106.3 63.9343 101.8 63.9343 90.6 63.9343C88.5 63.9343 88 62.6343 88.7 60.9343C90 57.8343 92.4 52.6343 93.8 50.0343C94.1 49.4343 94.8 48.4343 96.3 48.4343C101.4 48.4343 120.2 48.4343 132.7 48.4343C132.5 51.1343 132.5 53.8343 132.1 56.5343C131 63.7343 128.3 70.3343 123.9 76.1343C116.7 85.6343 107.3 91.5343 95.4 93.1343C85.6 94.4343 76.5 92.5343 68.5 86.5343C61.1 80.9343 56.9 73.5343 55.8 64.3343C54.5 53.4343 57.7 43.6343 64.3 35.0343C71.4 25.7343 80.8 19.8343 92.3 17.7343C101.7 16.0343 110.7 17.1343 118.8 22.6343C124.1 26.1343 127.9 30.9343 130.4 36.7343C131 37.6343 130.6 38.1343 129.4 38.4343Z" fill="#2DBCAF"/>
<path d="M162.5 93.7343C153.4 93.5343 145.1 90.9343 138.1 84.9343C132.2 79.8343 128.5 73.3343 127.3 65.6343C125.5 54.3343 128.6 44.3343 135.4 35.4343C142.7 25.8343 151.5 20.8343 163.4 18.7343C173.6 16.9343 183.2 17.9343 191.9 23.8343C199.8 29.2343 204.7 36.5343 206 46.1343C207.7 59.6343 203.8 70.6343 194.5 80.0343C187.9 86.7343 179.8 90.9343 170.5 92.8343C167.8 93.3343 165.1 93.4343 162.5 93.7343ZM186.3 53.3343C186.2 52.0343 186.2 51.0343 186 50.0343C184.2 40.1343 175.1 34.5343 165.6 36.7343C156.3 38.8343 150.3 44.7343 148.1 54.1343C146.3 61.9343 150.1 69.8343 157.3 73.0343C162.8 75.4343 168.3 75.1343 173.6 72.4343C181.5 68.3343 185.8 61.9343 186.3 53.3343Z" fill="#2DBCAF"/>
</svg>
