<svg width="208" height="235" viewBox="0 0 208 235" fill="none" xmlns="http://www.w3.org/2000/svg">
    <g clip-path="url(#clip0_3_15)">
        <path
            d="M134.909 125.251C136.946 137.289 138.329 149.43 139.052 161.618C139.252 169.208 137.042 176.666 132.74 182.916C131.729 186.538 128.693 182.916 126.525 182.916C121.177 182.916 119.201 177.121 116.31 173.547C113.42 169.973 115.491 166.737 117.419 163.888C119.49 162.391 120.309 159.058 123.297 159.058C126.284 159.058 125.899 154.953 125.465 152.78C127.44 149.737 126.236 145.246 128.163 141.913C131.632 140.368 130.62 134.959 131.825 131.916C132.789 129.743 131.825 125.589 134.571 124.672C134.571 124.672 134.909 124.672 134.86 125.155M131.536 1.13179C127.007 0.600543 123.586 3.69146 119.779 5.4301C116.62 6.48413 113.403 7.35489 110.143 8.03806C107.782 12.8676 102.338 15.7171 99.3987 20.2568C96.3909 29.278 90.7926 37.2081 83.306 43.0524C72.6097 48.6063 67.2133 60.6802 63.6961 72.0297C62.4916 74.5894 62.6843 78.3564 61.3834 80.5297C57.1434 81.7371 59.4079 76.1831 58.9261 73.5269C58.2997 69.5666 61.7688 67.007 62.0097 63.1433C63.4448 60.3984 64.0477 57.2927 63.7443 54.2086C63.2625 47.3024 65.3343 38.8989 60.4679 33.2484C57.577 31.558 58.4925 27.9841 57.4325 25.2313C54.5587 21.2989 50.8996 18.0094 46.688 15.5722C43.2189 15.2341 40.0389 10.7426 36.4735 12.8193C34.2571 15.4273 30.1617 15.379 28.8608 18.8563C28.0417 23.2029 23.1754 22.0438 19.9954 23.1063C15.9481 24.7 10.7445 23.1063 7.41997 26.3421C4.09544 29.5779 -1.34909 34.3109 0.289089 39.7683C4.09544 47.2541 13.9245 43.487 19.2726 48.0268C17.5835 53.0499 15.6376 57.9826 13.4427 62.8052C12.5683 69.3537 12.4389 75.9805 13.0572 82.5581C14.069 89.1263 12.3827 97.5781 17.8754 102.214C21.0072 103.374 20.8145 107.044 22.019 109.749C23.2235 112.453 25.5363 108.783 26.4999 111.391C29.2944 112.936 26.789 116.22 28.3308 118.152C30.902 118.662 33.2655 119.922 35.1244 121.774C38.0859 123.841 40.8447 126.186 43.3635 128.777C45.2907 132.737 47.748 124.913 49.868 127.859C50.1238 128.492 50.5105 129.063 51.0026 129.535C51.4948 130.007 52.0812 130.369 52.7232 130.598C53.3652 130.826 54.0481 130.915 54.727 130.859C55.4059 130.803 56.0652 130.604 56.6616 130.274C60.5844 129.611 64.2881 128.004 67.4543 125.589C69.5261 132.979 67.9361 140.996 68.8515 148.626C70.1323 154.198 70.9383 159.869 71.2606 165.578C72.7051 171.203 73.5451 176.967 73.766 182.771C75.3324 194.832 73.2864 207.087 67.8879 217.979C67.5731 219.648 66.7669 221.184 65.5732 222.389C64.3795 223.594 62.8531 224.413 61.1906 224.74C58.7816 225.851 53.7707 227.831 55.457 231.308C61.0461 236.138 69.9115 235.607 76.3197 233.144C80.5597 231.067 76.8978 225.899 79.066 222.76C81.9087 211.749 80.5115 199.965 83.8842 188.953C86.4936 183.402 87.4793 177.222 86.7269 171.132C87.4014 167.413 85.8596 162.922 88.2687 159.879C88.3058 156.137 89.6919 152.535 92.1714 149.737C92.9566 144.056 93.359 138.328 93.376 132.592C96.7693 131.529 100.343 131.168 103.88 131.53C103.88 134.717 101.615 138.388 102.29 141.962C102.999 145.977 102.229 150.113 100.121 153.601C98.6278 159.879 97.6159 167.607 101.519 172.919C107.975 180.019 116.407 185.041 122.526 192.624C123.016 193.02 123.417 193.516 123.701 194.079C123.985 194.643 124.146 195.26 124.173 195.891C124.201 196.521 124.094 197.15 123.859 197.736C123.625 198.322 123.269 198.851 122.815 199.289C122.262 201.303 121.227 203.153 119.8 204.676C118.372 206.199 116.596 207.351 114.624 208.03C112.07 209.044 107.975 212.86 110.962 215.516C116.975 216.874 123.251 216.455 129.03 214.308C132.981 212.86 131.536 208.078 133.078 205.084C135.205 207.981 137.168 210.996 138.956 214.115C141.413 217.786 145.653 214.743 148.592 213.584C148.939 208.214 147.858 202.848 145.46 198.033C144.111 194.845 138.859 194.749 139.1 190.837C141.702 181.178 148.158 173.644 153.266 165.482C157.506 161.425 154.326 155.388 154.567 150.269C153.215 137.112 156.395 123.887 163.577 112.791C165.064 118.955 166.98 125.006 169.31 130.902C170.99 137.814 174.037 144.318 178.272 150.027C180.247 156.885 179.717 164.516 181.018 171.615C182.88 183.891 182.191 196.42 178.995 208.416C179.332 212.811 175.188 216.047 175.574 220.345C176.73 224.306 181.356 221.118 183.765 222.808C185.869 223.463 188.139 223.336 190.156 222.449C192.174 221.561 193.805 219.974 194.75 217.979C193.745 214.624 193.067 211.179 192.726 207.692C189.42 197.535 188.692 186.713 190.606 176.203C190.992 170.504 194.413 163.55 189.98 158.672C188.776 153.456 190.847 147.805 189.595 142.445C186.624 128.709 186.28 114.533 188.583 100.669C189.354 98.7372 188.583 95.1633 190.655 94.1008C192.705 97.1693 193.625 100.858 193.256 104.533C195.129 110.228 195.362 116.338 193.931 122.161C190.414 126.652 192.582 132.737 193.016 137.808C193.594 141.382 197.304 138.822 197.834 136.601C201.071 130.556 203.687 124.197 205.639 117.621C207.855 114.626 205.639 111.101 205.639 107.962C209.06 107.527 207.759 103.663 205.928 101.973C204.097 95.7911 204.531 88.6434 200.387 83.3792C193.836 76.5883 188.403 68.7958 184.295 60.2939C179.91 46.433 167.383 37.2086 163.143 23.2029C162.356 19.1816 160.757 15.3638 158.446 11.9838C156.134 8.60376 153.158 5.73266 149.7 3.54657C146.588 2.11399 143.365 0.934991 140.064 0.0209961C137.255 0.608523 134.403 0.963884 131.536 1.0835"
            fill="#006098" />
    </g>
    <defs>
        <clipPath id="clip0_3_15">
            <rect width="208" height="235" fill="white" />
        </clipPath>
    </defs>
</svg>