<svg width="250" height="250" viewBox="0 0 250 250" fill="none" xmlns="http://www.w3.org/2000/svg">
<path fill-rule="evenodd" clip-rule="evenodd" d="M58.1977 94.83C60.0477 97.38 75.6477 102.19 98.9177 107.2C122.188 111.66 146.388 129.27 165.208 123.84C177.938 120.16 191.748 87.37 191.748 82.5V82C191.748 78.6 189.198 75.87 184.868 73.6C167.118 64.53 163.758 61.19 157.178 63C123.018 72.43 62.7077 67.61 58.1977 94.83Z" fill="#380D09"/>
<path fill-rule="evenodd" clip-rule="evenodd" d="M58.1977 161.41C60.0477 164 75.6477 168.77 98.9177 173.79C124.918 178.53 147.528 193.98 166.358 188.54C179.088 184.86 191.748 153.96 191.748 149.08V148.6C191.748 145.21 189.198 142.47 184.868 140.21C171.328 133.01 153.438 125.08 146.868 126.89C112.648 136.3 66.9077 138.37 58.1977 161.41Z" fill="#380D09"/>
<path fill-rule="evenodd" clip-rule="evenodd" d="M58.0077 109.14V109.62C57.9974 109.46 57.9974 109.3 58.0077 109.14Z" fill="#555555"/>
<path fill-rule="evenodd" clip-rule="evenodd" d="M166.308 28.78C134.848 37.87 84.9377 43 58.0477 43V94.35C58.0563 94.5266 58.1231 94.6954 58.2377 94.83C76.5877 94.83 133.238 88.83 167.418 79.43C173.379 77.9128 179.224 75.9712 184.908 73.62C189.088 71.74 191.788 69.76 191.788 67.7V15.91C191.748 20.79 179.038 25.11 166.308 28.78Z" fill="#DE3423"/>
<path fill-rule="evenodd" clip-rule="evenodd" d="M166.308 95.37C147.478 100.8 122.068 104.84 98.9177 107.2C83.3777 108.79 68.8577 109.62 58.0477 109.62V160.93C58.0563 161.107 58.1231 161.275 58.2377 161.41C76.5877 161.41 133.238 155.41 167.418 146.02C173.377 144.498 179.222 142.557 184.908 140.21C189.088 138.32 191.788 136.35 191.788 134.29V82.5C191.748 87.37 179.038 91.69 166.308 95.37Z" fill="#DE3423"/>
<path fill-rule="evenodd" clip-rule="evenodd" d="M166.308 162C147.478 167.43 122.068 171.46 98.9177 173.83C83.3577 175.42 68.8177 176.25 58.0077 176.25V228C76.1677 228 133.108 222.05 167.378 212.61C180.008 209.13 191.748 205.17 191.748 200.87V149.08C191.748 154 179.038 158.28 166.308 162Z" fill="#DE3423"/>
</svg>
