<svg width="59" height="59" viewBox="0 0 59 59" fill="none" xmlns="http://www.w3.org/2000/svg">
<g clip-path="url(#clip0_2_44)">
<path d="M59.3867 16.4501C59.3832 15.8528 59.3766 15.2558 59.3601 14.6578C59.3253 13.357 59.2484 12.0444 59.0172 10.7575C58.7826 9.4506 58.3991 8.2354 57.7947 7.0482C57.2014 5.8823 56.4258 4.8154 55.5006 3.8902C54.5756 2.965 53.5087 2.1895 52.3423 1.5959C51.1561 0.9922 49.9407 0.6088 48.635 0.3742C47.3474 0.1423 46.0348 0.0659 44.733 0.0307C44.1353 0.0145 43.5382 0.0077 42.9407 0.004C42.2315 0 41.5218 0 40.8128 0H25.0912H18.5781C17.8684 0 17.1595 0 16.4505 0.0041C15.8528 0.0078 15.255 0.0146 14.6582 0.0308C14.3328 0.0396 14.0067 0.051 13.6804 0.0667C12.7016 0.1139 11.7213 0.2004 10.7561 0.3743C9.77684 0.5503 8.84824 0.8099 7.94484 1.1834C7.64374 1.3078 7.34534 1.445 7.04874 1.5959C6.17394 2.0411 5.35494 2.5886 4.61004 3.2248C4.36174 3.4369 4.12164 3.6588 3.89044 3.8901C2.96504 4.8153 2.18944 5.8822 1.59614 7.0481C0.991738 8.2353 0.608738 9.4505 0.373938 10.7574C0.142938 12.0443 0.0661381 13.3569 0.0311381 14.6577C0.0147381 15.2557 0.00783811 15.8527 0.00393811 16.45C-0.000561889 17.1594 3.81111e-05 17.8689 3.81111e-05 18.5781V28.26V40.8125C3.81111e-05 41.5224 -0.000661889 42.2312 0.00393811 42.9411C0.00783811 43.5384 0.0147381 44.1354 0.0311381 44.7324C0.0661381 46.0339 0.142838 47.3468 0.373938 48.6331C0.608738 49.9396 0.991738 51.1559 1.59614 52.3428C2.18944 53.509 2.96504 54.5756 3.89044 55.5004C4.81514 56.426 5.88234 57.2014 7.04884 57.7954C8.23514 58.3992 9.45044 58.7821 10.7564 59.0167C12.0432 59.2483 13.3568 59.3253 14.6583 59.3601C15.2551 59.376 15.8529 59.3831 16.4506 59.3865C17.1596 59.3916 17.8685 59.3909 18.5782 59.3909H40.8128C41.5218 59.3909 42.2315 59.3916 42.9406 59.3865C43.5381 59.3831 44.1352 59.376 44.7329 59.3601C46.0347 59.3253 47.3473 59.2482 48.6349 59.0167C49.9406 58.7821 51.156 58.3991 52.3422 57.7954C53.5086 57.2015 54.5755 56.426 55.5005 55.5004C56.4257 54.5755 57.2014 53.509 57.7946 52.3428C58.399 51.1559 58.7825 49.9397 59.0171 48.6331C59.2483 47.3468 59.3252 46.0339 59.36 44.7324C59.3764 44.1354 59.383 43.5385 59.3866 42.9411C59.3912 42.2312 59.3908 41.5224 59.3908 40.8125V18.5781C59.3909 17.8689 59.3912 17.1594 59.3867 16.4501Z" fill="#F05138"/>
<path d="M47.0606 36.6607C47.0592 36.6589 47.0579 36.6576 47.0564 36.6559C47.1221 36.4323 47.1899 36.2101 47.2474 35.9809C49.7124 26.16 43.6963 14.549 33.5158 8.43549C37.9771 14.4834 39.9498 21.8088 38.1972 28.215C38.0409 28.7864 37.8529 29.3348 37.6452 29.8678C37.4198 29.7197 37.1358 29.5516 36.7544 29.3413C36.7544 29.3413 26.6275 23.0886 15.6516 12.0291C15.3636 11.7388 21.5044 20.8061 28.4735 28.169C25.1901 26.3263 16.0397 19.6686 10.2469 14.3667C10.9586 15.5536 11.8051 16.6965 12.7356 17.7968C17.5731 23.9317 23.8818 31.5012 31.4399 37.3137C26.1295 40.5635 18.6258 40.8162 11.1547 37.3171C9.30685 36.4511 7.56965 35.4062 5.96155 34.219C9.12405 39.2775 13.9947 43.6419 19.9228 46.1898C26.9923 49.2279 34.0224 49.0219 39.2584 46.2396L39.2543 46.2456C39.2782 46.2305 39.3087 46.214 39.3335 46.1987C39.5485 46.0831 39.7619 45.9654 39.9706 45.8411C42.4863 44.5353 47.4552 43.2105 50.1223 48.3999C50.7755 49.6699 52.1635 42.9395 47.0606 36.6607Z" fill="white"/>
</g>
<defs>
<clipPath id="clip0_2_44">
<rect width="59" height="59" fill="white"/>
</clipPath>
</defs>
</svg>
