<svg width="166" height="172" viewBox="0 0 166 172" fill="none" xmlns="http://www.w3.org/2000/svg">
<path d="M130.109 36.1523C167.138 73.1705 177.143 123.197 152.459 147.871C127.775 172.555 77.7587 162.55 40.7355 125.531C39.4779 124.274 38.331 122.966 37.1337 121.678L59.3527 99.4591C88.1464 128.253 124.828 138.263 141.277 121.804C157.731 105.35 147.726 68.6684 118.937 39.8747L119.048 39.9804L118.942 39.8697C86.0387 6.96125 41.0172 -1.37402 18.3957 21.2474C7.45477 32.1884 3.82286 48.376 6.63482 65.8816C2.31879 45.3427 5.88027 26.3129 18.3957 13.8025C43.0746 -10.8763 93.0912 -0.87099 130.109 36.1523Z" fill="#FDD888"/>
<path d="M82.5121 171.297C81.2444 171.297 79.9818 170.91 78.8953 170.135L53.3613 151.82L27.8273 170.135C25.6492 171.695 22.7316 171.695 20.5685 170.11C18.4055 168.541 17.495 165.764 18.3049 163.224L27.8323 132.488L2.5247 114.656C0.37172 113.071 -0.51865 110.284 0.301294 107.739C1.1313 105.204 3.49053 103.478 6.16164 103.458L37.0831 103.398L47.4808 73.4321C48.3259 70.8968 50.6952 69.1865 53.3663 69.1865C56.0374 69.1865 58.4067 70.8968 59.2518 73.4321L68.6384 103.398L100.566 103.458C103.242 103.478 105.606 105.204 106.426 107.739C107.251 110.284 106.356 113.071 104.203 114.656L78.8953 132.488L88.4177 163.224C89.2326 165.764 88.312 168.546 86.1591 170.11C85.0675 170.905 83.7898 171.297 82.5121 171.297Z" fill="#FFAC33"/>
</svg>
